<?xml version="1.0" encoding="UTF-8"?> <svg xmlns="http://www.w3.org/2000/svg" width="125" height="46" viewBox="0 0 125 46" fill="none"><path d="M69.4946 18.6891C68.8634 18.5797 67.4293 18.2857 65.913 17.9711C65.1239 17.807 64.3074 17.6361 63.5732 17.4856C56.4923 16.0428 54.4407 14.8325 54.4407 12.1042C54.4407 10.2989 55.7855 8.53475 62.4548 8.53475C67.3127 8.53475 69.7554 9.51942 70.8944 11.9332C71.2031 12.5623 71.4364 13.4649 71.4364 13.8547V14.3265H81.9892V13.8547C81.9892 12.8016 81.6119 11.1879 80.9875 9.52626C78.4488 3.11225 72.4588 -0.00585938 62.6744 -0.00585938C50.7081 -0.00585938 43.8398 4.62344 43.8398 12.7059C43.8398 19.6396 48.4919 24.0432 57.6656 25.7938C59.573 26.1767 62.6813 26.7784 63.9369 26.9972C64.0124 27.0109 64.1839 27.0383 64.4309 27.0793C74.4211 28.6452 80.3837 31.4419 81.8109 33.4796C82.3392 34.225 82.5039 35.1276 82.5039 35.1276L82.7028 33.3497C82.7646 32.8095 82.792 32.2625 82.792 31.7291C82.792 24.4945 78.6958 20.4738 69.4946 18.696" fill="#454A3F"></path><path d="M72.7095 33.8008L72.2224 33.4452L72.0028 34.0059C71.2549 35.9 68.6201 36.8232 63.9612 36.8232C57.2028 36.8232 55.4943 35.1342 54.7121 33.4794C54.4308 32.9118 54.17 31.6879 54.17 30.963V30.4912H43.6172V30.963C43.6172 31.7904 43.7681 33.9991 44.2347 35.5308C46.3617 42.2593 52.4478 45.2544 63.9612 45.2544C69.5876 45.2544 74.0887 44.174 77.3341 42.0405L77.5468 41.9038V41.6508C77.5674 39.6883 76.744 36.7343 72.7164 33.8076" fill="#454A3F"></path><path d="M124.907 0.575195H85.7148V9.17051H124.907V0.575195Z" fill="#454A3F"></path><path d="M100.552 13.1162L100.195 13.0684V44.6802H110.33V19.9337C109.842 17.3694 107.75 14.1077 100.552 13.1231" fill="#454A3F"></path><path d="M27.7123 35.0385C26.8409 35.7223 25.448 36.0847 23.6777 36.0847H10.1333V26.8671H23.6777C25.2216 26.8671 26.834 27.2843 27.7123 28.0159C28.6385 28.7749 28.9885 30.0126 28.9885 31.7426C28.9885 33.247 28.5562 34.3547 27.7123 35.0317M32.1927 21.6498C33.1877 21.1985 34.1551 20.5694 34.8138 19.9061C36.6458 18.053 37.6544 15.14 37.6544 11.7074C37.6544 8.52774 36.6458 5.78572 34.8138 3.99417C32.577 1.79235 28.9473 0.582031 24.604 0.582031H-0.000951097V9.19102L21.8389 9.12948C23.7738 9.12948 24.9128 9.69703 25.6332 10.3398C26.4566 11.0715 26.9849 12.2955 26.9849 13.7314C26.9849 15.3862 26.4978 16.7538 25.6195 17.5949C24.8991 18.2787 23.9591 18.6137 22.7515 18.6137H9.72852C8.79537 16.3504 6.35271 13.9502 0.34898 13.1297L-0.0078125 13.0818V44.6937H26.3743C30.7313 44.6937 34.1894 43.4355 36.6458 40.9465C38.5876 38.984 39.6991 35.9138 39.6991 32.529C39.6991 29.1442 38.8277 26.4227 37.2427 24.7679C36.1312 23.5986 34.2237 22.2994 32.1859 21.6566" fill="#454A3F"></path></svg> 