<?xml version="1.0" encoding="UTF-8"?> <svg xmlns="http://www.w3.org/2000/svg" width="126" height="46" viewBox="0 0 126 46" fill="none"><path d="M70.1548 18.6891C69.5235 18.5797 68.0895 18.2857 66.5731 17.9711C65.7841 17.807 64.9676 17.6361 64.2334 17.4856C57.1524 16.0428 55.1009 14.8325 55.1009 12.1042C55.1009 10.2989 56.4457 8.53475 63.115 8.53475C67.9729 8.53475 70.4155 9.51942 71.5545 11.9332C71.8633 12.5623 72.0966 13.4649 72.0966 13.8547V14.3265H82.6494V13.8547C82.6494 12.8016 82.272 11.1879 81.6476 9.52626C79.1089 3.11225 73.1189 -0.00585938 63.3346 -0.00585938C51.3683 -0.00585938 44.5 4.62344 44.5 12.7059C44.5 19.6396 49.152 24.0432 58.3257 25.7938C60.2332 26.1767 63.3414 26.7784 64.5971 26.9972C64.6725 27.0109 64.8441 27.0383 65.0911 27.0793C75.0813 28.6452 81.0438 31.4419 82.471 33.4796C82.9993 34.225 83.164 35.1276 83.164 35.1276L83.363 33.3497C83.4247 32.8095 83.4522 32.2625 83.4522 31.7291C83.4522 24.4945 79.3559 20.4738 70.1548 18.696" fill="#E5E5D6"></path><path d="M73.3697 33.8008L72.8825 33.4452L72.663 34.0059C71.9151 35.9 69.2803 36.8232 64.6214 36.8232C57.8629 36.8232 56.1544 35.1342 55.3722 33.4794C55.0909 32.9118 54.8302 31.6879 54.8302 30.963V30.4912H44.2773V30.963C44.2773 31.7904 44.4283 33.9991 44.8949 35.5308C47.0219 42.2593 53.108 45.2544 64.6214 45.2544C70.2478 45.2544 74.7488 44.174 77.9943 42.0405L78.207 41.9038V41.6508C78.2276 39.6883 77.4042 36.7343 73.3766 33.8076" fill="#E5E5D6"></path><path d="M125.567 0.575195H86.375V9.17051H125.567V0.575195Z" fill="#E5E5D6"></path><path d="M101.212 13.1162L100.855 13.0684V44.6802H110.99V19.9337C110.503 17.3694 108.41 14.1077 101.212 13.1231" fill="#E5E5D6"></path><path d="M28.3724 35.0385C27.501 35.7223 26.1081 36.0847 24.3379 36.0847H10.7935V26.8671H24.3379C25.8817 26.8671 27.4942 27.2843 28.3724 28.0159C29.2987 28.7749 29.6486 30.0126 29.6486 31.7426C29.6486 33.247 29.2164 34.3547 28.3724 35.0317M32.8529 21.6498C33.8478 21.1985 34.8153 20.5694 35.474 19.9061C37.306 18.053 38.3146 15.14 38.3146 11.7074C38.3146 8.52774 37.306 5.78572 35.474 3.99417C33.2371 1.79235 29.6075 0.582031 25.2642 0.582031H0.659205V9.19102L22.4991 9.12948C24.434 9.12948 25.573 9.69703 26.2934 10.3398C27.1168 11.0715 27.6451 12.2955 27.6451 13.7314C27.6451 15.3862 27.1579 16.7538 26.2797 17.5949C25.5592 18.2787 24.6192 18.6137 23.4116 18.6137H10.3887C9.45552 16.3504 7.01286 13.9502 1.00914 13.1297L0.652344 13.0818V44.6937H27.0344C31.3914 44.6937 34.8496 43.4355 37.306 40.9465C39.2477 38.984 40.3593 35.9138 40.3593 32.529C40.3593 29.1442 39.4879 26.4227 37.9029 24.7679C36.7914 23.5986 34.8839 22.2994 32.846 21.6566" fill="#E5E5D6"></path></svg> 